<svg xmlns="http://www.w3.org/2000/svg" viewBox="0 0 1024 1024">
  <defs>
    <linearGradient id="surface" x1="160" y1="96" x2="820" y2="920" gradientUnits="userSpaceOnUse">
      <stop stop-color="#FEFEFD"/>
      <stop offset="1" stop-color="#E9E9E5"/>
    </linearGradient>
    <filter id="shadow" x="-20%" y="-20%" width="140%" height="150%">
      <feDropShadow dx="0" dy="28" stdDeviation="32" flood-color="#000" flood-opacity=".18"/>
    </filter>
  </defs>
  <rect x="72" y="72" width="880" height="880" rx="210" fill="url(#surface)" filter="url(#shadow)"/>
  <path d="M332 252h204c126 0 208 59 208 158 0 65-34 112-98 139 82 23 126 78 126 158 0 113-91 185-231 185H332c-44 0-80-36-80-80V332c0-44 36-80 80-80Zm79 132v116h119c39 0 63-22 63-58 0-37-24-58-68-58H411Zm0 242v134h135c48 0 75-24 75-66 0-44-29-68-84-68H411Z" fill="#242421"/>
  <circle cx="786" cy="274" r="42" fill="#72A277"/>
</svg>
